<?xml version="1.0" encoding="UTF-8" standalone="no"?>
<!DOCTYPE svg PUBLIC "-//W3C//DTD SVG 1.1//EN" "http://www.w3.org/Graphics/SVG/1.1/DTD/svg11.dtd">
<svg width="100%" height="100%" viewBox="0 0 2000 2000" version="1.1" xmlns="http://www.w3.org/2000/svg" xmlns:xlink="http://www.w3.org/1999/xlink" xml:space="preserve" xmlns:serif="http://www.serif.com/" style="fill-rule:evenodd;clip-rule:evenodd;stroke-linejoin:round;stroke-miterlimit:2;">
    <g transform="matrix(1.10836,0,0,1.10316,-87.5407,-104.436)">
        <path d="M1883.44,366.617L1883.44,1635.7C1883.44,1785.8 1762.16,1907.65 1612.77,1907.65L349.651,1907.65C200.265,1907.65 78.982,1785.8 78.982,1635.7L78.982,366.617C78.982,216.525 200.265,94.67 349.651,94.67L1612.77,94.67C1762.16,94.67 1883.44,216.525 1883.44,366.617ZM1083.51,287.238C1002.33,320.968 958.651,365.318 948.031,414.929C937.433,464.432 958.895,523.39 1019.84,588.995L1019.97,589.132C1063.97,635.255 1085.74,674.596 1078.34,710.393C1070.9,746.319 1035.09,774.299 975.541,799.866C961.231,806.01 954.578,822.67 960.692,837.047C966.807,851.424 983.389,858.108 997.698,851.965C1079.86,816.692 1123.29,771.489 1133.55,721.924C1143.82,672.262 1121.74,613.989 1060.93,550.194C1016.87,502.734 995.488,462.674 1003.16,426.843C1010.81,391.087 1046.55,363.904 1105.06,339.594C1119.44,333.62 1126.29,317.039 1120.34,302.591C1114.4,288.143 1097.89,281.264 1083.51,287.238ZM899.339,287.238C818.153,320.968 774.478,365.318 763.857,414.929C753.259,464.432 774.721,523.39 835.668,588.995L835.795,589.132C879.793,635.255 901.57,674.596 894.163,710.393C886.729,746.319 850.918,774.299 791.367,799.866C777.057,806.01 770.404,822.67 776.518,837.047C782.633,851.424 799.215,858.108 813.524,851.965C895.682,816.692 939.116,771.489 949.372,721.924C959.648,672.262 937.567,613.989 876.758,550.194C832.696,502.734 811.314,462.674 818.985,426.843C826.64,391.087 862.374,363.904 920.887,339.594C935.267,333.62 942.114,317.039 936.168,302.591C930.222,288.143 913.719,281.264 899.339,287.238ZM620.645,1660.04L620.645,1270.98C620.645,1255.27 633.503,1242.52 649.34,1242.52L783.253,1242.52C799.091,1242.52 811.949,1255.27 811.949,1270.98L811.949,1688.9L833.618,1688.9L833.618,1182.96C833.618,1167.25 846.476,1154.49 862.314,1154.49L996.226,1154.49C1012.06,1154.49 1024.92,1167.25 1024.92,1182.96L1024.92,1688.9L1045.9,1688.9L1045.9,1079.02C1045.9,1063.31 1058.75,1050.55 1074.59,1050.55L1208.51,1050.55C1224.34,1050.55 1237.2,1063.31 1237.2,1079.02L1237.2,1661.72C1298.32,1626.61 1339.47,1561.03 1339.47,1485.99C1339.47,1482.63 1339.39,1479.29 1339.23,1475.97L1339.47,1476.05C1359.43,1482.5 1380.74,1485.99 1402.87,1485.99C1515.76,1485.99 1607.42,1395.07 1607.42,1283.08C1607.42,1171.09 1515.76,1080.17 1402.87,1080.17C1380.74,1080.17 1359.43,1083.66 1339.47,1090.12L1339.47,917.843C1339.47,895.445 1321.14,877.261 1298.56,877.261L562.158,877.261C539.578,877.261 521.247,895.445 521.247,917.843L521.247,1485.99C521.247,1559.85 561.112,1624.55 620.645,1660.04ZM1339.47,1231.79C1354.48,1213.56 1377.31,1201.92 1402.87,1201.92C1448.03,1201.92 1484.69,1238.29 1484.69,1283.08C1484.69,1327.88 1448.03,1364.25 1402.87,1364.25C1377.31,1364.25 1354.48,1352.6 1339.47,1334.38L1339.47,1231.79Z" style="fill:rgb(0,27,203);"/>
    </g>
</svg>
