<?xml version="1.0" encoding="UTF-8" standalone="no"?>
<!DOCTYPE svg PUBLIC "-//W3C//DTD SVG 1.1//EN" "http://www.w3.org/Graphics/SVG/1.1/DTD/svg11.dtd">
<svg width="100%" height="100%" viewBox="0 0 2000 2000" version="1.1" xmlns="http://www.w3.org/2000/svg" xmlns:xlink="http://www.w3.org/1999/xlink" xml:space="preserve" xmlns:serif="http://www.serif.com/" style="fill-rule:evenodd;clip-rule:evenodd;stroke-linejoin:round;stroke-miterlimit:2;">
    <g transform="matrix(1.05059,0,0,1.05059,-41.2667,-50.5881)">
        <g transform="matrix(0.863223,0,0,0.852256,74.255,443.773)">
            <path d="M621.48,1464.43C548.722,1420.7 500,1341 500,1250L500,550C500,522.404 522.404,500 550,500L1450,500C1477.6,500 1500,522.404 1500,550L1500,762.257C1524.4,754.302 1550.44,750 1577.48,750C1715.46,750 1827.48,862.021 1827.48,1000C1827.48,1137.98 1715.46,1250 1577.48,1250C1550.44,1250 1524.4,1245.7 1500,1237.74L1499.7,1237.64C1499.9,1241.74 1500,1245.86 1500,1250C1500,1342.45 1449.71,1423.25 1375.01,1466.51L1375.01,748.576C1375.01,729.22 1359.29,713.505 1339.94,713.505L1176.28,713.505C1156.92,713.505 1141.2,729.22 1141.2,748.576L1141.2,1500L1115.57,1500L1115.57,876.637C1115.57,857.281 1099.86,841.566 1080.5,841.566L916.837,841.566C897.481,841.566 881.767,857.281 881.767,876.637L881.767,1500L855.284,1500L855.284,985.093C855.284,965.737 839.569,950.023 820.213,950.023L656.551,950.023C637.195,950.023 621.48,965.737 621.48,985.093L621.48,1464.43ZM1500,936.801L1500,1063.2C1518.34,1085.65 1546.25,1100 1577.48,1100C1632.67,1100 1677.48,1055.19 1677.48,1000C1677.48,944.808 1632.67,900 1577.48,900C1546.25,900 1518.34,914.346 1500,936.801Z" style="fill:rgb(0,27,203);"/>
        </g>
        <g transform="matrix(0.978441,0.206525,-0.206525,0.978441,-24.1106,-109.72)">
            <path d="M983.202,160.48C996.75,151.209 1015.28,154.681 1024.55,168.229C1033.82,181.778 1030.35,200.304 1016.8,209.575C961.67,247.3 930.679,283.014 930.531,321.417C930.383,359.901 961.142,396.4 1016.92,435.56C1093.52,487.854 1128.95,542.913 1129.11,596.175C1129.28,649.332 1094.24,705.237 1017.09,759.377C1003.65,768.806 985.08,765.551 975.651,752.113C966.221,738.674 969.476,720.108 982.915,710.678C1038.84,671.436 1069.74,634.887 1069.62,596.356C1069.51,557.965 1038.5,522.291 983.077,484.49L982.916,484.377C905.776,430.255 870.837,374.357 871.041,321.189C871.246,267.904 906.712,212.822 983.202,160.48Z" style="fill:rgb(106,106,106);"/>
        </g>
        <g transform="matrix(0.978441,0.206525,-0.206525,0.978441,170.192,-109.72)">
            <path d="M983.202,160.48C996.75,151.209 1015.28,154.681 1024.55,168.229C1033.82,181.778 1030.35,200.304 1016.8,209.575C961.67,247.3 930.679,283.014 930.531,321.417C930.383,359.901 961.142,396.4 1016.92,435.56C1093.52,487.854 1128.95,542.913 1129.11,596.175C1129.28,649.332 1094.24,705.237 1017.09,759.377C1003.65,768.806 985.08,765.551 975.651,752.113C966.221,738.674 969.476,720.108 982.915,710.678C1038.84,671.436 1069.74,634.887 1069.62,596.356C1069.51,557.965 1038.5,522.291 983.077,484.49L982.916,484.377C905.776,430.255 870.837,374.357 871.041,321.189C871.246,267.904 906.712,212.822 983.202,160.48Z" style="fill:rgb(106,106,106);"/>
        </g>
    </g>
</svg>
